<?xml version="1.0" encoding="UTF-8" standalone="no"?>
<!DOCTYPE svg PUBLIC "-//W3C//DTD SVG 1.1//EN"
 "http://www.w3.org/Graphics/SVG/1.1/DTD/svg11.dtd">
<!-- Generated by graphviz version 9.0.0 (20230911.1827)
 -->
<!-- Title: ml Pages: 1 -->
<svg width="1763pt" height="1309pt"
 viewBox="0.00 0.00 1763.38 1308.50" xmlns="http://www.w3.org/2000/svg" xmlns:xlink="http://www.w3.org/1999/xlink">
<g id="graph0" class="graph" transform="scale(1 1) rotate(0) translate(4 1304.5)">
<title>ml</title>
<polygon fill="white" stroke="none" points="-4,4 -4,-1304.5 1759.38,-1304.5 1759.38,4 -4,4"/>
<!-- ndRunState -->
<g id="node1" class="node">
<title>ndRunState</title>
<polygon fill="none" stroke="black" points="110.5,-836 110.5,-951 246.5,-951 246.5,-836 110.5,-836"/>
<text text-anchor="middle" x="178.5" y="-933.7" font-family="Times,serif" font-size="14.00">&lt;&lt;&lt;Enumeration&gt;&gt;&gt;</text>
<text text-anchor="middle" x="178.5" y="-917.2" font-family="Times,serif" font-size="14.00">RunState</text>
<polyline fill="none" stroke="black" points="110.5,-910 246.5,-910"/>
<text text-anchor="middle" x="178.5" y="-892.7" font-family="Times,serif" font-size="14.00">Init</text>
<text text-anchor="middle" x="178.5" y="-876.2" font-family="Times,serif" font-size="14.00">Success</text>
<text text-anchor="middle" x="178.5" y="-859.7" font-family="Times,serif" font-size="14.00">Failed</text>
<text text-anchor="middle" x="178.5" y="-843.2" font-family="Times,serif" font-size="14.00">Error</text>
</g>
<!-- ndEmulationData -->
<g id="node5" class="node">
<title>ndEmulationData</title>
<polygon fill="none" stroke="black" points="0,-276 0,-778.5 427,-778.5 427,-276 0,-276"/>
<text text-anchor="middle" x="213.5" y="-761.2" font-family="Times,serif" font-size="14.00">&lt;&lt;&lt;Structure&gt;&gt;&gt;</text>
<text text-anchor="middle" x="213.5" y="-744.7" font-family="Times,serif" font-size="14.00">EmulationData</text>
<polyline fill="none" stroke="black" points="0,-737.5 427,-737.5"/>
<text text-anchor="middle" x="213.5" y="-720.2" font-family="Times,serif" font-size="14.00">&#45; state: RunState</text>
<text text-anchor="middle" x="213.5" y="-703.7" font-family="Times,serif" font-size="14.00">&#45; start_trace: bool</text>
<text text-anchor="middle" x="213.5" y="-687.2" font-family="Times,serif" font-size="14.00">&#45; with_register_data: bool</text>
<text text-anchor="middle" x="213.5" y="-670.7" font-family="Times,serif" font-size="14.00">&#45; negative_run: bool</text>
<text text-anchor="middle" x="213.5" y="-654.2" font-family="Times,serif" font-size="14.00">&#45; deactivate_print: bool</text>
<text text-anchor="middle" x="213.5" y="-637.7" font-family="Times,serif" font-size="14.00">&#45; trace_data: Vec&lt;TraceRecord&gt;</text>
<text text-anchor="middle" x="213.5" y="-621.2" font-family="Times,serif" font-size="14.00">&#45; fault_data: Vec&lt;FaultData&gt;</text>
<polyline fill="none" stroke="black" points="0,-614 427,-614"/>
<text text-anchor="middle" x="213.5" y="-596.7" font-family="Times,serif" font-size="14.00">+ new(file_data: &amp;&#39;a ElfFile) &#45;&gt; Self</text>
<text text-anchor="middle" x="213.5" y="-580.2" font-family="Times,serif" font-size="14.00">+ init_register(&amp;mut self)</text>
<text text-anchor="middle" x="213.5" y="-563.7" font-family="Times,serif" font-size="14.00">+ load_code(&amp;mut self)</text>
<text text-anchor="middle" x="213.5" y="-547.2" font-family="Times,serif" font-size="14.00">+ deactivate_printf_function(&amp;mut self)</text>
<text text-anchor="middle" x="213.5" y="-530.7" font-family="Times,serif" font-size="14.00">+ setup_breakpoints(&amp;mut self)</text>
<text text-anchor="middle" x="213.5" y="-514.2" font-family="Times,serif" font-size="14.00">+ setup_mmio(&amp;mut self)</text>
<text text-anchor="middle" x="213.5" y="-497.7" font-family="Times,serif" font-size="14.00">+ run_steps(&amp;mut self, cycles: usize, debug: bool) &#45;&gt; Result&lt;(), uc_error&gt;</text>
<text text-anchor="middle" x="213.5" y="-481.2" font-family="Times,serif" font-size="14.00">+ set_fault(&amp;mut self, record: &amp;SimulationFaultRecord)</text>
<text text-anchor="middle" x="213.5" y="-464.7" font-family="Times,serif" font-size="14.00">&#45; get_asm_cmd_size(&amp;self, address: u64) &#45;&gt; Option&lt;usize&gt;</text>
<text text-anchor="middle" x="213.5" y="-448.2" font-family="Times,serif" font-size="14.00">+ init_states(&amp;mut self, run_state: bool)</text>
<text text-anchor="middle" x="213.5" y="-431.7" font-family="Times,serif" font-size="14.00">+ get_state(&amp;self) &#45;&gt; RunState</text>
<text text-anchor="middle" x="213.5" y="-415.2" font-family="Times,serif" font-size="14.00">+ get_fault_data(&amp;self) &#45;&gt; &amp;Vec&lt;FaultData&gt;</text>
<text text-anchor="middle" x="213.5" y="-398.7" font-family="Times,serif" font-size="14.00">+ set_trace_hook(&amp;mut self, _sim_faults: Vec&lt;SimulationFaultRecord&gt;)</text>
<text text-anchor="middle" x="213.5" y="-382.2" font-family="Times,serif" font-size="14.00">+ start_tracing(&amp;mut self)</text>
<text text-anchor="middle" x="213.5" y="-365.7" font-family="Times,serif" font-size="14.00">+ with_register_data(&amp;mut self)</text>
<text text-anchor="middle" x="213.5" y="-349.2" font-family="Times,serif" font-size="14.00">+ release_usage_fault_hooks(&amp;mut self)</text>
<text text-anchor="middle" x="213.5" y="-332.7" font-family="Times,serif" font-size="14.00">+ get_trace(&amp;self) &#45;&gt; &amp;Vec&lt;TraceRecord&gt;</text>
<text text-anchor="middle" x="213.5" y="-316.2" font-family="Times,serif" font-size="14.00">+ reduce_trace(&amp;mut self)</text>
<text text-anchor="middle" x="213.5" y="-299.7" font-family="Times,serif" font-size="14.00">+ add_to_trace(&amp;mut self, fault: &amp;FaultData)</text>
<text text-anchor="middle" x="213.5" y="-283.2" font-family="Times,serif" font-size="14.00">+ skip_asm_cmds(&amp;mut self, fault: &amp;FaultData)</text>
</g>
<!-- ndRunState&#45;&gt;ndEmulationData -->
<g id="edge1" class="edge">
<title>ndRunState&#45;&gt;ndEmulationData</title>
<path fill="none" stroke="black" d="M183.97,-835.59C185.23,-822.48 186.65,-807.7 188.17,-791.89"/>
<polygon fill="black" stroke="black" points="188.17,-791.84 184.76,-785.48 189.32,-779.89 192.73,-786.25 188.17,-791.84"/>
</g>
<!-- ndFaultType -->
<g id="node2" class="node">
<title>ndFaultType</title>
<polygon fill="none" stroke="black" points="1034.5,-1201.5 1034.5,-1267 1170.5,-1267 1170.5,-1201.5 1034.5,-1201.5"/>
<text text-anchor="middle" x="1102.5" y="-1249.7" font-family="Times,serif" font-size="14.00">&lt;&lt;&lt;Enumeration&gt;&gt;&gt;</text>
<text text-anchor="middle" x="1102.5" y="-1233.2" font-family="Times,serif" font-size="14.00">FaultType</text>
<polyline fill="none" stroke="black" points="1034.5,-1226 1170.5,-1226"/>
<text text-anchor="middle" x="1102.5" y="-1208.7" font-family="Times,serif" font-size="14.00">Glitch(usize)</text>
</g>
<!-- ndSimulationFaultRecord -->
<g id="node7" class="node">
<title>ndSimulationFaultRecord</title>
<polygon fill="none" stroke="black" points="851.5,-1008.5 851.5,-1131.5 1353.5,-1131.5 1353.5,-1008.5 851.5,-1008.5"/>
<text text-anchor="middle" x="1102.5" y="-1114.2" font-family="Times,serif" font-size="14.00">&lt;&lt;&lt;Structure&gt;&gt;&gt;</text>
<text text-anchor="middle" x="1102.5" y="-1097.7" font-family="Times,serif" font-size="14.00">SimulationFaultRecord</text>
<polyline fill="none" stroke="black" points="851.5,-1090.5 1353.5,-1090.5"/>
<text text-anchor="middle" x="1102.5" y="-1073.2" font-family="Times,serif" font-size="14.00">+ index: usize</text>
<text text-anchor="middle" x="1102.5" y="-1056.7" font-family="Times,serif" font-size="14.00">+ record: TraceRecord</text>
<text text-anchor="middle" x="1102.5" y="-1040.2" font-family="Times,serif" font-size="14.00">+ fault_type: FaultType</text>
<polyline fill="none" stroke="black" points="851.5,-1033 1353.5,-1033"/>
<text text-anchor="middle" x="1102.5" y="-1015.7" font-family="Times,serif" font-size="14.00">+ get_fault_record(&amp;self, index: usize, fault_type: FaultType) &#45;&gt; SimulationFaultRecord</text>
</g>
<!-- ndFaultType&#45;&gt;ndSimulationFaultRecord -->
<g id="edge2" class="edge">
<title>ndFaultType&#45;&gt;ndSimulationFaultRecord</title>
<path fill="none" stroke="black" stroke-dasharray="5,2" d="M1102.5,-1201.19C1102.5,-1184.98 1102.5,-1164.58 1102.5,-1144.77"/>
<polygon fill="black" stroke="black" points="1102.5,-1144.79 1098.5,-1138.79 1102.5,-1132.79 1106.5,-1138.79 1102.5,-1144.79"/>
</g>
<!-- ndFaultData -->
<g id="node3" class="node">
<title>ndFaultData</title>
<polygon fill="none" stroke="black" points="822.25,-832 822.25,-955 1382.75,-955 1382.75,-832 822.25,-832"/>
<text text-anchor="middle" x="1102.5" y="-937.7" font-family="Times,serif" font-size="14.00">&lt;&lt;&lt;Structure&gt;&gt;&gt;</text>
<text text-anchor="middle" x="1102.5" y="-921.2" font-family="Times,serif" font-size="14.00">FaultData</text>
<polyline fill="none" stroke="black" points="822.25,-914 1382.75,-914"/>
<text text-anchor="middle" x="1102.5" y="-896.7" font-family="Times,serif" font-size="14.00">+ data: Vec&lt;u8&gt;</text>
<text text-anchor="middle" x="1102.5" y="-880.2" font-family="Times,serif" font-size="14.00">+ data_changed: Vec&lt;u8&gt;</text>
<text text-anchor="middle" x="1102.5" y="-863.7" font-family="Times,serif" font-size="14.00">+ fault: SimulationFaultRecord</text>
<polyline fill="none" stroke="black" points="822.25,-856.5 1382.75,-856.5"/>
<text text-anchor="middle" x="1102.5" y="-839.2" font-family="Times,serif" font-size="14.00">+ get_simulation_fault_records(fault_data_records: &amp;[FaultData]) &#45;&gt; Vec&lt;SimulationFaultRecord&gt;</text>
</g>
<!-- ndFaultData&#45;&gt;ndEmulationData -->
<g id="edge3" class="edge">
<title>ndFaultData&#45;&gt;ndEmulationData</title>
<path fill="none" stroke="black" stroke-dasharray="5,2" d="M889.55,-831.58C863.73,-825.38 837.61,-819.66 812.5,-815 663.97,-787.42 611.46,-842.76 474.5,-779 462.18,-773.26 450.08,-766.71 438.25,-759.51"/>
<polygon fill="black" stroke="black" points="438.38,-759.59 431.17,-759.78 428.22,-753.2 435.43,-753.01 438.38,-759.59"/>
</g>
<!-- ndSimulation -->
<g id="node8" class="node">
<title>ndSimulation</title>
<polygon fill="none" stroke="black" points="484,-432.75 484,-621.75 1241,-621.75 1241,-432.75 484,-432.75"/>
<text text-anchor="middle" x="862.5" y="-604.45" font-family="Times,serif" font-size="14.00">&lt;&lt;&lt;Structure&gt;&gt;&gt;</text>
<text text-anchor="middle" x="862.5" y="-587.95" font-family="Times,serif" font-size="14.00">Simulation</text>
<polyline fill="none" stroke="black" points="484,-580.75 1241,-580.75"/>
<text text-anchor="middle" x="862.5" y="-563.45" font-family="Times,serif" font-size="14.00">&#45; emu: FaultInjections&lt;&#39;a&gt;</text>
<polyline fill="none" stroke="black" points="484,-556.25 1241,-556.25"/>
<text text-anchor="middle" x="862.5" y="-538.95" font-family="Times,serif" font-size="14.00">+ new(file_data: &amp;&#39;a ElfFile) &#45;&gt; Self</text>
<text text-anchor="middle" x="862.5" y="-522.45" font-family="Times,serif" font-size="14.00">+ check_program(&amp;mut self)</text>
<text text-anchor="middle" x="862.5" y="-505.95" font-family="Times,serif" font-size="14.00">&#45; init_and_load(&amp;mut self, run_successful: bool)</text>
<text text-anchor="middle" x="862.5" y="-489.45" font-family="Times,serif" font-size="14.00">+ record_code_trace(&amp;mut self, full_trace: bool, low_complexity: bool, faults: Vec&lt;SimulationFaultRecord&gt;) &#45;&gt; &amp;Vec&lt;TraceRecord&gt;</text>
<text text-anchor="middle" x="862.5" y="-472.95" font-family="Times,serif" font-size="14.00">&#45; run(&amp;mut self, run_successful: bool)</text>
<text text-anchor="middle" x="862.5" y="-456.45" font-family="Times,serif" font-size="14.00">&#45; run_till(&amp;mut self, run_successful: bool, steps: usize) &#45;&gt; Result&lt;(), uc_error&gt;</text>
<text text-anchor="middle" x="862.5" y="-439.95" font-family="Times,serif" font-size="14.00">+ run_with_faults(&amp;mut self, external_record: &amp;[SimulationFaultRecord]) &#45;&gt; Option&lt;Vec&lt;FaultData&gt;&gt;</text>
</g>
<!-- ndFaultData&#45;&gt;ndSimulation -->
<g id="edge4" class="edge">
<title>ndFaultData&#45;&gt;ndSimulation</title>
<path fill="none" stroke="black" d="M1062.33,-831.53C1026.33,-776.89 972.78,-695.62 930.17,-630.95"/>
<polygon fill="black" stroke="black" points="924.9,-622.96 934.16,-628.84 926.98,-626.12 930.41,-631.31 930.41,-631.31 930.41,-631.31 926.98,-626.12 926.65,-633.79 924.9,-622.96"/>
</g>
<!-- ndFaultAttacks -->
<g id="node9" class="node">
<title>ndFaultAttacks</title>
<polygon fill="none" stroke="black" points="804,-0.5 804,-239 1735,-239 1735,-0.5 804,-0.5"/>
<text text-anchor="middle" x="1269.5" y="-221.7" font-family="Times,serif" font-size="14.00">&lt;&lt;&lt;Structure&gt;&gt;&gt;</text>
<text text-anchor="middle" x="1269.5" y="-205.2" font-family="Times,serif" font-size="14.00">FaultAttacks</text>
<polyline fill="none" stroke="black" points="804,-198 1735,-198"/>
<text text-anchor="middle" x="1269.5" y="-180.7" font-family="Times,serif" font-size="14.00">&#45; cs: Disassembly</text>
<text text-anchor="middle" x="1269.5" y="-164.2" font-family="Times,serif" font-size="14.00">&#45; file_data: ElfFile</text>
<text text-anchor="middle" x="1269.5" y="-147.7" font-family="Times,serif" font-size="14.00">&#45; fault_data: Option&lt;Vec&lt;Vec&lt;FaultData&gt;&gt;&gt;</text>
<text text-anchor="middle" x="1269.5" y="-131.2" font-family="Times,serif" font-size="14.00">+ count_sum: usize</text>
<polyline fill="none" stroke="black" points="804,-124 1735,-124"/>
<text text-anchor="middle" x="1269.5" y="-106.7" font-family="Times,serif" font-size="14.00">+ new(path: std::path::PathBuf) &#45;&gt; Self</text>
<text text-anchor="middle" x="1269.5" y="-90.2" font-family="Times,serif" font-size="14.00">+ print_fault_data(&amp;self)</text>
<text text-anchor="middle" x="1269.5" y="-73.7" font-family="Times,serif" font-size="14.00">+ print_trace_for_fault(&amp;self, attack_number: usize)</text>
<text text-anchor="middle" x="1269.5" y="-57.2" font-family="Times,serif" font-size="14.00">+ check_for_correct_behavior(&amp;self)</text>
<text text-anchor="middle" x="1269.5" y="-40.7" font-family="Times,serif" font-size="14.00">+ single_glitch(&amp;mut self, low_complexity: bool, range: std::ops::RangeInclusive&lt;usize&gt;) &#45;&gt; (bool, usize)</text>
<text text-anchor="middle" x="1269.5" y="-24.2" font-family="Times,serif" font-size="14.00">+ double_glitch(&amp;mut self, low_complexity: bool, range: std::ops::RangeInclusive&lt;usize&gt;) &#45;&gt; (bool, usize)</text>
<text text-anchor="middle" x="1269.5" y="-7.7" font-family="Times,serif" font-size="14.00">+ cached_nop_simulation_x_y(&amp;self, records: &amp;Vec&lt;TraceRecord&gt;, low_complexity: bool, num_x: usize, num_y: usize) &#45;&gt; (Option&lt;Vec&lt;Vec&lt;FaultData&gt;&gt;&gt;, usize)</text>
</g>
<!-- ndFaultData&#45;&gt;ndFaultAttacks -->
<g id="edge5" class="edge">
<title>ndFaultData&#45;&gt;ndFaultAttacks</title>
<path fill="none" stroke="black" d="M1207.01,-831.78C1224.44,-816.81 1240.18,-799.18 1250.5,-779 1295.87,-690.27 1288.26,-417.13 1278.79,-251.89"/>
<polygon fill="black" stroke="black" points="1278.8,-252.08 1274.45,-246.32 1278.09,-240.1 1282.44,-245.85 1278.8,-252.08"/>
</g>
<!-- ndDisassembly -->
<g id="node11" class="node">
<title>ndDisassembly</title>
<polygon fill="none" stroke="black" points="1297.62,-449.25 1297.62,-605.25 1755.38,-605.25 1755.38,-449.25 1297.62,-449.25"/>
<text text-anchor="middle" x="1526.5" y="-587.95" font-family="Times,serif" font-size="14.00">&lt;&lt;&lt;Structure&gt;&gt;&gt;</text>
<text text-anchor="middle" x="1526.5" y="-571.45" font-family="Times,serif" font-size="14.00">Disassembly</text>
<polyline fill="none" stroke="black" points="1297.62,-564.25 1755.38,-564.25"/>
<text text-anchor="middle" x="1526.5" y="-546.95" font-family="Times,serif" font-size="14.00">&#45; cs: Capstone</text>
<polyline fill="none" stroke="black" points="1297.62,-539.75 1755.38,-539.75"/>
<text text-anchor="middle" x="1526.5" y="-522.45" font-family="Times,serif" font-size="14.00">+ new() &#45;&gt; Self</text>
<text text-anchor="middle" x="1526.5" y="-505.95" font-family="Times,serif" font-size="14.00">&#45; disassembly_fault_data(&amp;self, fault_data: &amp;FaultData)</text>
<text text-anchor="middle" x="1526.5" y="-489.45" font-family="Times,serif" font-size="14.00">&#45; disassembly_trace_record(&amp;self, trace_record: &amp;TraceRecord)</text>
<text text-anchor="middle" x="1526.5" y="-472.95" font-family="Times,serif" font-size="14.00">+ print_fault_records(&amp;self, fault_data_vec: &amp;Option&lt;Vec&lt;Vec&lt;FaultData&gt;&gt;&gt;)</text>
<text text-anchor="middle" x="1526.5" y="-456.45" font-family="Times,serif" font-size="14.00">+ print_trace_records(&amp;self, trace_records: &amp;Option&lt;Vec&lt;TraceRecord&gt;&gt;)</text>
</g>
<!-- ndFaultData&#45;&gt;ndDisassembly -->
<g id="edge6" class="edge">
<title>ndFaultData&#45;&gt;ndDisassembly</title>
<path fill="none" stroke="black" stroke-dasharray="5,2" d="M1208.82,-831.8C1234.11,-815.76 1260.44,-797.67 1283.5,-779 1345.1,-729.12 1407.17,-664.78 1453.16,-613.76"/>
<polygon fill="black" stroke="black" points="1459.58,-606.6 1456.26,-617.05 1457.06,-609.41 1452.91,-614.04 1452.91,-614.04 1452.91,-614.04 1457.06,-609.41 1449.56,-611.04 1459.58,-606.6"/>
</g>
<!-- ndFaultInjections -->
<g id="node4" class="node">
<title>ndFaultInjections</title>
<polygon fill="none" stroke="black" points="589.12,-844.25 589.12,-942.75 803.88,-942.75 803.88,-844.25 589.12,-844.25"/>
<text text-anchor="middle" x="696.5" y="-925.45" font-family="Times,serif" font-size="14.00">&lt;&lt;&lt;Structure&gt;&gt;&gt;</text>
<text text-anchor="middle" x="696.5" y="-908.95" font-family="Times,serif" font-size="14.00">FaultInjections</text>
<polyline fill="none" stroke="black" points="589.12,-901.75 803.88,-901.75"/>
<text text-anchor="middle" x="696.5" y="-884.45" font-family="Times,serif" font-size="14.00">&#45; file_data: &amp;&#39;a ElfFile</text>
<text text-anchor="middle" x="696.5" y="-867.95" font-family="Times,serif" font-size="14.00">&#45; emu: Unicorn&lt;&#39;a, EmulationData&gt;</text>
<text text-anchor="middle" x="696.5" y="-851.45" font-family="Times,serif" font-size="14.00">&#45; program_counter: u64</text>
</g>
<!-- ndFaultInjections&#45;&gt;ndSimulation -->
<g id="edge7" class="edge">
<title>ndFaultInjections&#45;&gt;ndSimulation</title>
<path fill="none" stroke="black" d="M718.72,-843.75C743.06,-790.33 782.85,-703.03 814.41,-633.78"/>
<polygon fill="black" stroke="black" points="814.45,-633.7 813.29,-626.58 819.42,-622.78 820.57,-629.89 814.45,-633.7"/>
</g>
<!-- ndTraceRecord -->
<g id="node6" class="node">
<title>ndTraceRecord</title>
<polygon fill="none" stroke="black" points="1252.75,-1176.75 1252.75,-1291.75 1438.25,-1291.75 1438.25,-1176.75 1252.75,-1176.75"/>
<text text-anchor="middle" x="1345.5" y="-1274.45" font-family="Times,serif" font-size="14.00">&lt;&lt;&lt;Structure&gt;&gt;&gt;</text>
<text text-anchor="middle" x="1345.5" y="-1257.95" font-family="Times,serif" font-size="14.00">TraceRecord</text>
<polyline fill="none" stroke="black" points="1252.75,-1250.75 1438.25,-1250.75"/>
<text text-anchor="middle" x="1345.5" y="-1233.45" font-family="Times,serif" font-size="14.00">+ address: u64</text>
<text text-anchor="middle" x="1345.5" y="-1216.95" font-family="Times,serif" font-size="14.00">+ size: usize</text>
<text text-anchor="middle" x="1345.5" y="-1200.45" font-family="Times,serif" font-size="14.00">+ asm_instruction: Vec&lt;u8&gt;</text>
<text text-anchor="middle" x="1345.5" y="-1183.95" font-family="Times,serif" font-size="14.00">+ registers: Option&lt;[u32; 17]&gt;</text>
</g>
<!-- ndTraceRecord&#45;&gt;ndEmulationData -->
<g id="edge8" class="edge">
<title>ndTraceRecord&#45;&gt;ndEmulationData</title>
<path fill="none" stroke="black" d="M1252.55,-1191.67C1229.11,-1182.59 1203.71,-1173.94 1179.5,-1168 785.7,-1071.43 558.45,-1274.54 288.5,-972 281.41,-964.06 266.77,-882.45 252.28,-791.33"/>
<polygon fill="black" stroke="black" points="252.3,-791.46 247.41,-786.15 250.43,-779.6 255.31,-784.9 252.3,-791.46"/>
</g>
<!-- ndTraceRecord&#45;&gt;ndSimulationFaultRecord -->
<g id="edge9" class="edge">
<title>ndTraceRecord&#45;&gt;ndSimulationFaultRecord</title>
<path fill="none" stroke="black" d="M1260.17,-1176.27C1242.22,-1164.29 1223.11,-1151.53 1204.62,-1139.19"/>
<polygon fill="black" stroke="black" points="1204.55,-1139.14 1197.34,-1139.13 1194.57,-1132.47 1201.78,-1132.48 1204.55,-1139.14"/>
</g>
<!-- ndTraceRecord&#45;&gt;ndSimulation -->
<g id="edge10" class="edge">
<title>ndTraceRecord&#45;&gt;ndSimulation</title>
<path fill="none" stroke="black" d="M1360.9,-1176.26C1386.64,-1075.64 1431.77,-871.74 1391.5,-815 1363.43,-775.46 1332.5,-799.4 1288.5,-779 1194.41,-735.38 1094.23,-677.07 1014.67,-627.65"/>
<polygon fill="black" stroke="black" points="1006.6,-622.63 1017.47,-624.09 1009.81,-624.62 1015.09,-627.91 1015.09,-627.91 1015.09,-627.91 1009.81,-624.62 1012.71,-631.73 1006.6,-622.63"/>
</g>
<!-- ndTraceRecord&#45;&gt;ndDisassembly -->
<g id="edge11" class="edge">
<title>ndTraceRecord&#45;&gt;ndDisassembly</title>
<path fill="none" stroke="black" stroke-dasharray="5,2" d="M1397.61,-1176.47C1407.93,-1162.73 1417.67,-1147.51 1424.5,-1132 1500.24,-960.07 1520.02,-737.78 1525,-616.61"/>
<polygon fill="black" stroke="black" points="1525.38,-606.78 1529.49,-616.94 1525.24,-610.56 1525,-616.77 1525,-616.77 1525,-616.77 1525.24,-610.56 1520.5,-616.6 1525.38,-606.78"/>
</g>
<!-- ndSimulationFaultRecord&#45;&gt;ndFaultData -->
<g id="edge12" class="edge">
<title>ndSimulationFaultRecord&#45;&gt;ndFaultData</title>
<path fill="none" stroke="black" d="M1102.5,-1008.46C1102.5,-995.4 1102.5,-981.47 1102.5,-967.98"/>
<polygon fill="black" stroke="black" points="1102.5,-968.13 1098.5,-962.13 1102.5,-956.13 1106.5,-962.13 1102.5,-968.13"/>
</g>
<!-- ndSimulationFaultRecord&#45;&gt;ndEmulationData -->
<g id="edge13" class="edge">
<title>ndSimulationFaultRecord&#45;&gt;ndEmulationData</title>
<path fill="none" stroke="black" stroke-dasharray="5,2" d="M851.18,-1067C656.38,-1060.17 407.26,-1038.18 331.5,-972 330.45,-971.08 307.57,-885.41 282.23,-789.59"/>
<polygon fill="black" stroke="black" points="279.68,-779.95 286.59,-788.47 280.65,-783.61 282.24,-789.62 282.24,-789.62 282.24,-789.62 280.65,-783.61 277.89,-790.77 279.68,-779.95"/>
</g>
<!-- ndElfFile -->
<g id="node10" class="node">
<title>ndElfFile</title>
<polygon fill="none" stroke="black" points="340.25,-815.5 340.25,-971.5 570.75,-971.5 570.75,-815.5 340.25,-815.5"/>
<text text-anchor="middle" x="455.5" y="-954.2" font-family="Times,serif" font-size="14.00">&lt;&lt;&lt;Structure&gt;&gt;&gt;</text>
<text text-anchor="middle" x="455.5" y="-937.7" font-family="Times,serif" font-size="14.00">ElfFile</text>
<polyline fill="none" stroke="black" points="340.25,-930.5 570.75,-930.5"/>
<text text-anchor="middle" x="455.5" y="-913.2" font-family="Times,serif" font-size="14.00">+ header: FileHeader&lt;AnyEndian&gt;</text>
<text text-anchor="middle" x="455.5" y="-896.7" font-family="Times,serif" font-size="14.00">+ program_header: ProgramHeader</text>
<text text-anchor="middle" x="455.5" y="-880.2" font-family="Times,serif" font-size="14.00">+ program: Vec&lt;u8&gt;</text>
<text text-anchor="middle" x="455.5" y="-863.7" font-family="Times,serif" font-size="14.00">+ flash_load_img: Symbol</text>
<text text-anchor="middle" x="455.5" y="-847.2" font-family="Times,serif" font-size="14.00">+ serial_puts: Symbol</text>
<polyline fill="none" stroke="black" points="340.25,-840 570.75,-840"/>
<text text-anchor="middle" x="455.5" y="-822.7" font-family="Times,serif" font-size="14.00">+ new(path: std::path::PathBuf) &#45;&gt; Self</text>
</g>
<!-- ndElfFile&#45;&gt;ndEmulationData -->
<g id="edge14" class="edge">
<title>ndElfFile&#45;&gt;ndEmulationData</title>
<path fill="none" stroke="black" stroke-dasharray="5,2" d="M404.18,-815.25C398.45,-806.63 392.4,-797.53 386.13,-788.08"/>
<polygon fill="black" stroke="black" points="380.72,-779.94 390,-785.78 382.81,-783.09 386.25,-788.27 386.25,-788.27 386.25,-788.27 382.81,-783.09 382.5,-790.76 380.72,-779.94"/>
</g>
<!-- ndElfFile&#45;&gt;ndSimulation -->
<g id="edge15" class="edge">
<title>ndElfFile&#45;&gt;ndSimulation</title>
<path fill="none" stroke="black" stroke-dasharray="5,2" d="M541.81,-815.25C602.23,-761.18 683.56,-688.4 749.19,-629.66"/>
<polygon fill="black" stroke="black" points="756.61,-623.01 752.16,-633.04 753.8,-625.54 749.16,-629.68 749.16,-629.68 749.16,-629.68 753.8,-625.54 746.16,-626.33 756.61,-623.01"/>
</g>
<!-- ndElfFile&#45;&gt;ndFaultAttacks -->
<g id="edge16" class="edge">
<title>ndElfFile&#45;&gt;ndFaultAttacks</title>
<path fill="none" stroke="black" d="M452.59,-815.1C447.47,-658.54 440.35,-315.66 474.5,-275.5 519.65,-222.4 649.04,-187.22 790.67,-164.05"/>
<polygon fill="black" stroke="black" points="790.78,-164.03 796.07,-159.13 802.63,-162.12 797.34,-167.03 790.78,-164.03"/>
</g>
<!-- ndDisassembly&#45;&gt;ndFaultAttacks -->
<g id="edge17" class="edge">
<title>ndDisassembly&#45;&gt;ndFaultAttacks</title>
<path fill="none" stroke="black" d="M1477.56,-449.02C1441.96,-392.86 1392.94,-315.52 1351.43,-250.02"/>
<polygon fill="black" stroke="black" points="1351.47,-250.09 1344.88,-247.16 1345.05,-239.95 1351.64,-242.88 1351.47,-250.09"/>
</g>
<!-- ndArgs -->
<g id="node12" class="node">
<title>ndArgs</title>
<polygon fill="none" stroke="black" points="1456.38,-1168.5 1456.38,-1300 1600.62,-1300 1600.62,-1168.5 1456.38,-1168.5"/>
<text text-anchor="middle" x="1528.5" y="-1282.7" font-family="Times,serif" font-size="14.00">&lt;&lt;&lt;Structure&gt;&gt;&gt;</text>
<text text-anchor="middle" x="1528.5" y="-1266.2" font-family="Times,serif" font-size="14.00">Args</text>
<polyline fill="none" stroke="black" points="1456.38,-1259 1600.62,-1259"/>
<text text-anchor="middle" x="1528.5" y="-1241.7" font-family="Times,serif" font-size="14.00">&#45; threads: u16</text>
<text text-anchor="middle" x="1528.5" y="-1225.2" font-family="Times,serif" font-size="14.00">&#45; no_compilation: bool</text>
<text text-anchor="middle" x="1528.5" y="-1208.7" font-family="Times,serif" font-size="14.00">&#45; attack: String</text>
<text text-anchor="middle" x="1528.5" y="-1192.2" font-family="Times,serif" font-size="14.00">&#45; analysis: bool</text>
<text text-anchor="middle" x="1528.5" y="-1175.7" font-family="Times,serif" font-size="14.00">&#45; low_complexity: bool</text>
</g>
</g>
</svg>
