<?xml version="1.0" encoding="UTF-8" standalone="no"?>
<!DOCTYPE svg PUBLIC "-//W3C//DTD SVG 1.1//EN"
 "http://www.w3.org/Graphics/SVG/1.1/DTD/svg11.dtd">
<!-- Generated by graphviz version 9.0.0 (20230911.1827)
 -->
<!-- Title: ml Pages: 1 -->
<svg width="2018pt" height="1309pt"
 viewBox="0.00 0.00 2018.25 1308.50" xmlns="http://www.w3.org/2000/svg" xmlns:xlink="http://www.w3.org/1999/xlink">
<g id="graph0" class="graph" transform="scale(1 1) rotate(0) translate(4 1304.5)">
<title>ml</title>
<polygon fill="white" stroke="none" points="-4,4 -4,-1304.5 2014.25,-1304.5 2014.25,4 -4,4"/>
<!-- ndFaultAttacks -->
<g id="node1" class="node">
<title>ndFaultAttacks</title>
<polygon fill="none" stroke="black" points="20.38,-0.5 20.38,-239 951.38,-239 951.38,-0.5 20.38,-0.5"/>
<text text-anchor="middle" x="485.88" y="-221.7" font-family="Times,serif" font-size="14.00">&lt;&lt;&lt;Structure&gt;&gt;&gt;</text>
<text text-anchor="middle" x="485.88" y="-205.2" font-family="Times,serif" font-size="14.00">FaultAttacks</text>
<polyline fill="none" stroke="black" points="20.38,-198 951.38,-198"/>
<text text-anchor="middle" x="485.88" y="-180.7" font-family="Times,serif" font-size="14.00">&#45; cs: Disassembly</text>
<text text-anchor="middle" x="485.88" y="-164.2" font-family="Times,serif" font-size="14.00">&#45; file_data: ElfFile</text>
<text text-anchor="middle" x="485.88" y="-147.7" font-family="Times,serif" font-size="14.00">&#45; fault_data: Option&lt;Vec&lt;Vec&lt;FaultData&gt;&gt;&gt;</text>
<text text-anchor="middle" x="485.88" y="-131.2" font-family="Times,serif" font-size="14.00">+ count_sum: usize</text>
<polyline fill="none" stroke="black" points="20.38,-124 951.38,-124"/>
<text text-anchor="middle" x="485.88" y="-106.7" font-family="Times,serif" font-size="14.00">+ new(path: std::path::PathBuf) &#45;&gt; Self</text>
<text text-anchor="middle" x="485.88" y="-90.2" font-family="Times,serif" font-size="14.00">+ print_fault_data(&amp;self)</text>
<text text-anchor="middle" x="485.88" y="-73.7" font-family="Times,serif" font-size="14.00">+ print_trace_for_fault(&amp;self, attack_number: usize)</text>
<text text-anchor="middle" x="485.88" y="-57.2" font-family="Times,serif" font-size="14.00">+ check_for_correct_behavior(&amp;self)</text>
<text text-anchor="middle" x="485.88" y="-40.7" font-family="Times,serif" font-size="14.00">+ single_glitch(&amp;mut self, low_complexity: bool, range: std::ops::RangeInclusive&lt;usize&gt;) &#45;&gt; (bool, usize)</text>
<text text-anchor="middle" x="485.88" y="-24.2" font-family="Times,serif" font-size="14.00">+ double_glitch(&amp;mut self, low_complexity: bool, range: std::ops::RangeInclusive&lt;usize&gt;) &#45;&gt; (bool, usize)</text>
<text text-anchor="middle" x="485.88" y="-7.7" font-family="Times,serif" font-size="14.00">+ cached_nop_simulation_x_y(&amp;self, records: &amp;Vec&lt;TraceRecord&gt;, low_complexity: bool, num_x: usize, num_y: usize) &#45;&gt; (Option&lt;Vec&lt;Vec&lt;FaultData&gt;&gt;&gt;, usize)</text>
</g>
<!-- ndElfFile -->
<g id="node2" class="node">
<title>ndElfFile</title>
<polygon fill="none" stroke="black" points="859.62,-815.5 859.62,-971.5 1090.12,-971.5 1090.12,-815.5 859.62,-815.5"/>
<text text-anchor="middle" x="974.88" y="-954.2" font-family="Times,serif" font-size="14.00">&lt;&lt;&lt;Structure&gt;&gt;&gt;</text>
<text text-anchor="middle" x="974.88" y="-937.7" font-family="Times,serif" font-size="14.00">ElfFile</text>
<polyline fill="none" stroke="black" points="859.62,-930.5 1090.12,-930.5"/>
<text text-anchor="middle" x="974.88" y="-913.2" font-family="Times,serif" font-size="14.00">+ header: FileHeader&lt;AnyEndian&gt;</text>
<text text-anchor="middle" x="974.88" y="-896.7" font-family="Times,serif" font-size="14.00">+ program_header: ProgramHeader</text>
<text text-anchor="middle" x="974.88" y="-880.2" font-family="Times,serif" font-size="14.00">+ program: Vec&lt;u8&gt;</text>
<text text-anchor="middle" x="974.88" y="-863.7" font-family="Times,serif" font-size="14.00">+ flash_load_img: Symbol</text>
<text text-anchor="middle" x="974.88" y="-847.2" font-family="Times,serif" font-size="14.00">+ serial_puts: Symbol</text>
<polyline fill="none" stroke="black" points="859.62,-840 1090.12,-840"/>
<text text-anchor="middle" x="974.88" y="-822.7" font-family="Times,serif" font-size="14.00">+ new(path: std::path::PathBuf) &#45;&gt; Self</text>
</g>
<!-- ndElfFile&#45;&gt;ndFaultAttacks -->
<g id="edge1" class="edge">
<title>ndElfFile&#45;&gt;ndFaultAttacks</title>
<path fill="none" stroke="black" d="M976.58,-815.12C979.31,-659.02 981.54,-317.62 949.88,-275.5 942.66,-265.9 934.83,-256.9 926.47,-248.44"/>
<polygon fill="black" stroke="black" points="926.47,-248.45 919.38,-247.15 917.84,-240.11 924.94,-241.4 926.47,-248.45"/>
</g>
<!-- ndCpuState -->
<g id="node8" class="node">
<title>ndCpuState</title>
<polygon fill="none" stroke="black" points="514.38,-276 514.38,-778.5 941.38,-778.5 941.38,-276 514.38,-276"/>
<text text-anchor="middle" x="727.88" y="-761.2" font-family="Times,serif" font-size="14.00">&lt;&lt;&lt;Structure&gt;&gt;&gt;</text>
<text text-anchor="middle" x="727.88" y="-744.7" font-family="Times,serif" font-size="14.00">CpuState</text>
<polyline fill="none" stroke="black" points="514.38,-737.5 941.38,-737.5"/>
<text text-anchor="middle" x="727.88" y="-720.2" font-family="Times,serif" font-size="14.00">&#45; state: RunState</text>
<text text-anchor="middle" x="727.88" y="-703.7" font-family="Times,serif" font-size="14.00">&#45; start_trace: bool</text>
<text text-anchor="middle" x="727.88" y="-687.2" font-family="Times,serif" font-size="14.00">&#45; with_register_data: bool</text>
<text text-anchor="middle" x="727.88" y="-670.7" font-family="Times,serif" font-size="14.00">&#45; negative_run: bool</text>
<text text-anchor="middle" x="727.88" y="-654.2" font-family="Times,serif" font-size="14.00">&#45; deactivate_print: bool</text>
<text text-anchor="middle" x="727.88" y="-637.7" font-family="Times,serif" font-size="14.00">&#45; trace_data: Vec&lt;TraceRecord&gt;</text>
<text text-anchor="middle" x="727.88" y="-621.2" font-family="Times,serif" font-size="14.00">&#45; fault_data: Vec&lt;FaultData&gt;</text>
<polyline fill="none" stroke="black" points="514.38,-614 941.38,-614"/>
<text text-anchor="middle" x="727.88" y="-596.7" font-family="Times,serif" font-size="14.00">+ new(file_data: &amp;&#39;a ElfFile) &#45;&gt; Self</text>
<text text-anchor="middle" x="727.88" y="-580.2" font-family="Times,serif" font-size="14.00">+ init_register(&amp;mut self)</text>
<text text-anchor="middle" x="727.88" y="-563.7" font-family="Times,serif" font-size="14.00">+ load_code(&amp;mut self)</text>
<text text-anchor="middle" x="727.88" y="-547.2" font-family="Times,serif" font-size="14.00">+ deactivate_printf_function(&amp;mut self)</text>
<text text-anchor="middle" x="727.88" y="-530.7" font-family="Times,serif" font-size="14.00">+ setup_breakpoints(&amp;mut self)</text>
<text text-anchor="middle" x="727.88" y="-514.2" font-family="Times,serif" font-size="14.00">+ setup_mmio(&amp;mut self)</text>
<text text-anchor="middle" x="727.88" y="-497.7" font-family="Times,serif" font-size="14.00">+ run_steps(&amp;mut self, cycles: usize, debug: bool) &#45;&gt; Result&lt;(), uc_error&gt;</text>
<text text-anchor="middle" x="727.88" y="-481.2" font-family="Times,serif" font-size="14.00">+ set_fault(&amp;mut self, record: &amp;SimulationFaultRecord)</text>
<text text-anchor="middle" x="727.88" y="-464.7" font-family="Times,serif" font-size="14.00">&#45; get_asm_cmd_size(&amp;self, address: u64) &#45;&gt; Option&lt;usize&gt;</text>
<text text-anchor="middle" x="727.88" y="-448.2" font-family="Times,serif" font-size="14.00">+ init_states(&amp;mut self, run_state: bool)</text>
<text text-anchor="middle" x="727.88" y="-431.7" font-family="Times,serif" font-size="14.00">+ get_state(&amp;self) &#45;&gt; RunState</text>
<text text-anchor="middle" x="727.88" y="-415.2" font-family="Times,serif" font-size="14.00">+ get_fault_data(&amp;self) &#45;&gt; &amp;Vec&lt;FaultData&gt;</text>
<text text-anchor="middle" x="727.88" y="-398.7" font-family="Times,serif" font-size="14.00">+ set_trace_hook(&amp;mut self, _sim_faults: Vec&lt;SimulationFaultRecord&gt;)</text>
<text text-anchor="middle" x="727.88" y="-382.2" font-family="Times,serif" font-size="14.00">+ start_tracing(&amp;mut self)</text>
<text text-anchor="middle" x="727.88" y="-365.7" font-family="Times,serif" font-size="14.00">+ with_register_data(&amp;mut self)</text>
<text text-anchor="middle" x="727.88" y="-349.2" font-family="Times,serif" font-size="14.00">+ release_usage_fault_hooks(&amp;mut self)</text>
<text text-anchor="middle" x="727.88" y="-332.7" font-family="Times,serif" font-size="14.00">+ get_trace(&amp;self) &#45;&gt; &amp;Vec&lt;TraceRecord&gt;</text>
<text text-anchor="middle" x="727.88" y="-316.2" font-family="Times,serif" font-size="14.00">+ reduce_trace(&amp;mut self)</text>
<text text-anchor="middle" x="727.88" y="-299.7" font-family="Times,serif" font-size="14.00">+ add_to_trace(&amp;mut self, fault: &amp;FaultData)</text>
<text text-anchor="middle" x="727.88" y="-283.2" font-family="Times,serif" font-size="14.00">+ skip_asm_cmds(&amp;mut self, fault: &amp;FaultData)</text>
</g>
<!-- ndElfFile&#45;&gt;ndCpuState -->
<g id="edge2" class="edge">
<title>ndElfFile&#45;&gt;ndCpuState</title>
<path fill="none" stroke="black" stroke-dasharray="5,2" d="M922.49,-815.25C916.64,-806.63 910.47,-797.53 904.07,-788.08"/>
<polygon fill="black" stroke="black" points="898.54,-779.93 907.88,-785.69 900.67,-783.06 904.16,-788.21 904.16,-788.21 904.16,-788.21 900.67,-783.06 900.43,-790.74 898.54,-779.93"/>
</g>
<!-- ndControl -->
<g id="node12" class="node">
<title>ndControl</title>
<polygon fill="none" stroke="black" points="997.5,-449.25 997.5,-605.25 2010.25,-605.25 2010.25,-449.25 997.5,-449.25"/>
<text text-anchor="middle" x="1503.88" y="-587.95" font-family="Times,serif" font-size="14.00">&lt;&lt;&lt;Structure&gt;&gt;&gt;</text>
<text text-anchor="middle" x="1503.88" y="-571.45" font-family="Times,serif" font-size="14.00">Control</text>
<polyline fill="none" stroke="black" points="997.5,-564.25 2010.25,-564.25"/>
<text text-anchor="middle" x="1503.88" y="-546.95" font-family="Times,serif" font-size="14.00">&#45; emu: Cpu&lt;&#39;a&gt;</text>
<polyline fill="none" stroke="black" points="997.5,-539.75 2010.25,-539.75"/>
<text text-anchor="middle" x="1503.88" y="-522.45" font-family="Times,serif" font-size="14.00">+ new(program_data: &amp;&#39;a ElfFile) &#45;&gt; Self</text>
<text text-anchor="middle" x="1503.88" y="-505.95" font-family="Times,serif" font-size="14.00">&#45; run(&amp;mut self, run_successful: bool) &#45;&gt; RunState</text>
<text text-anchor="middle" x="1503.88" y="-489.45" font-family="Times,serif" font-size="14.00">&#45; init_and_load(&amp;mut self, run_successful: bool)</text>
<text text-anchor="middle" x="1503.88" y="-472.95" font-family="Times,serif" font-size="14.00">+ check_program(&amp;mut self)</text>
<text text-anchor="middle" x="1503.88" y="-456.45" font-family="Times,serif" font-size="14.00">+ run_with_faults(&amp;mut self, run_type: RunType, low_complexity_trace: bool, faults: Vec&lt;SimulationFaultRecord&gt;) &#45;&gt; (Option&lt;Vec&lt;FaultData&gt;&gt;, Option&lt;&amp;Vec&lt;TraceRecord&gt;&gt;)</text>
</g>
<!-- ndElfFile&#45;&gt;ndControl -->
<g id="edge3" class="edge">
<title>ndElfFile&#45;&gt;ndControl</title>
<path fill="none" stroke="black" stroke-dasharray="5,2" d="M1087.39,-815.03C1174.05,-755.35 1293.68,-672.99 1382.49,-611.83"/>
<polygon fill="black" stroke="black" points="1390.53,-606.3 1384.84,-615.67 1387.41,-608.44 1382.29,-611.97 1382.29,-611.97 1382.29,-611.97 1387.41,-608.44 1379.74,-608.26 1390.53,-606.3"/>
</g>
<!-- ndDisassembly -->
<g id="node3" class="node">
<title>ndDisassembly</title>
<polygon fill="none" stroke="black" points="0,-449.25 0,-605.25 457.75,-605.25 457.75,-449.25 0,-449.25"/>
<text text-anchor="middle" x="228.88" y="-587.95" font-family="Times,serif" font-size="14.00">&lt;&lt;&lt;Structure&gt;&gt;&gt;</text>
<text text-anchor="middle" x="228.88" y="-571.45" font-family="Times,serif" font-size="14.00">Disassembly</text>
<polyline fill="none" stroke="black" points="0,-564.25 457.75,-564.25"/>
<text text-anchor="middle" x="228.88" y="-546.95" font-family="Times,serif" font-size="14.00">&#45; cs: Capstone</text>
<polyline fill="none" stroke="black" points="0,-539.75 457.75,-539.75"/>
<text text-anchor="middle" x="228.88" y="-522.45" font-family="Times,serif" font-size="14.00">+ new() &#45;&gt; Self</text>
<text text-anchor="middle" x="228.88" y="-505.95" font-family="Times,serif" font-size="14.00">&#45; disassembly_fault_data(&amp;self, fault_data: &amp;FaultData)</text>
<text text-anchor="middle" x="228.88" y="-489.45" font-family="Times,serif" font-size="14.00">&#45; disassembly_trace_record(&amp;self, trace_record: &amp;TraceRecord)</text>
<text text-anchor="middle" x="228.88" y="-472.95" font-family="Times,serif" font-size="14.00">+ print_fault_records(&amp;self, fault_data_vec: &amp;Option&lt;Vec&lt;Vec&lt;FaultData&gt;&gt;&gt;)</text>
<text text-anchor="middle" x="228.88" y="-456.45" font-family="Times,serif" font-size="14.00">+ print_trace_records(&amp;self, trace_records: &amp;Option&lt;Vec&lt;TraceRecord&gt;&gt;)</text>
</g>
<!-- ndDisassembly&#45;&gt;ndFaultAttacks -->
<g id="edge4" class="edge">
<title>ndDisassembly&#45;&gt;ndFaultAttacks</title>
<path fill="none" stroke="black" d="M277.82,-449.02C313.41,-392.86 362.43,-315.52 403.95,-250.02"/>
<polygon fill="black" stroke="black" points="403.9,-250.09 403.74,-242.88 410.33,-239.95 410.49,-247.16 403.9,-250.09"/>
</g>
<!-- ndRunState -->
<g id="node4" class="node">
<title>ndRunState</title>
<polygon fill="none" stroke="black" points="1163.88,-836 1163.88,-951 1299.88,-951 1299.88,-836 1163.88,-836"/>
<text text-anchor="middle" x="1231.88" y="-933.7" font-family="Times,serif" font-size="14.00">&lt;&lt;&lt;Enumeration&gt;&gt;&gt;</text>
<text text-anchor="middle" x="1231.88" y="-917.2" font-family="Times,serif" font-size="14.00">RunState</text>
<polyline fill="none" stroke="black" points="1163.88,-910 1299.88,-910"/>
<text text-anchor="middle" x="1231.88" y="-892.7" font-family="Times,serif" font-size="14.00">Init</text>
<text text-anchor="middle" x="1231.88" y="-876.2" font-family="Times,serif" font-size="14.00">Success</text>
<text text-anchor="middle" x="1231.88" y="-859.7" font-family="Times,serif" font-size="14.00">Failed</text>
<text text-anchor="middle" x="1231.88" y="-843.2" font-family="Times,serif" font-size="14.00">Error</text>
</g>
<!-- ndRunState&#45;&gt;ndCpuState -->
<g id="edge5" class="edge">
<title>ndRunState&#45;&gt;ndCpuState</title>
<path fill="none" stroke="black" d="M1163.62,-849.02C1143.26,-837.08 1120.57,-824.74 1098.88,-815 1051.95,-793.93 1032.97,-805.48 988.88,-779 976.35,-771.48 963.96,-763.26 951.76,-754.53"/>
<polygon fill="black" stroke="black" points="951.98,-754.69 944.78,-754.38 942.3,-747.61 949.5,-747.92 951.98,-754.69"/>
</g>
<!-- ndRunState&#45;&gt;ndControl -->
<g id="edge6" class="edge">
<title>ndRunState&#45;&gt;ndControl</title>
<path fill="none" stroke="black" d="M1274.38,-835.59C1318.65,-776.29 1388.55,-682.69 1439.58,-614.35"/>
<polygon fill="black" stroke="black" points="1445.3,-606.7 1442.92,-617.4 1443.03,-609.73 1439.31,-614.71 1439.31,-614.71 1439.31,-614.71 1443.03,-609.73 1435.71,-612.02 1445.3,-606.7"/>
</g>
<!-- ndFaultType -->
<g id="node5" class="node">
<title>ndFaultType</title>
<polygon fill="none" stroke="black" points="484.88,-1201.5 484.88,-1267 620.88,-1267 620.88,-1201.5 484.88,-1201.5"/>
<text text-anchor="middle" x="552.88" y="-1249.7" font-family="Times,serif" font-size="14.00">&lt;&lt;&lt;Enumeration&gt;&gt;&gt;</text>
<text text-anchor="middle" x="552.88" y="-1233.2" font-family="Times,serif" font-size="14.00">FaultType</text>
<polyline fill="none" stroke="black" points="484.88,-1226 620.88,-1226"/>
<text text-anchor="middle" x="552.88" y="-1208.7" font-family="Times,serif" font-size="14.00">Glitch(usize)</text>
</g>
<!-- ndSimulationFaultRecord -->
<g id="node10" class="node">
<title>ndSimulationFaultRecord</title>
<polygon fill="none" stroke="black" points="301.88,-1008.5 301.88,-1131.5 803.88,-1131.5 803.88,-1008.5 301.88,-1008.5"/>
<text text-anchor="middle" x="552.88" y="-1114.2" font-family="Times,serif" font-size="14.00">&lt;&lt;&lt;Structure&gt;&gt;&gt;</text>
<text text-anchor="middle" x="552.88" y="-1097.7" font-family="Times,serif" font-size="14.00">SimulationFaultRecord</text>
<polyline fill="none" stroke="black" points="301.88,-1090.5 803.88,-1090.5"/>
<text text-anchor="middle" x="552.88" y="-1073.2" font-family="Times,serif" font-size="14.00">+ index: usize</text>
<text text-anchor="middle" x="552.88" y="-1056.7" font-family="Times,serif" font-size="14.00">+ record: TraceRecord</text>
<text text-anchor="middle" x="552.88" y="-1040.2" font-family="Times,serif" font-size="14.00">+ fault_type: FaultType</text>
<polyline fill="none" stroke="black" points="301.88,-1033 803.88,-1033"/>
<text text-anchor="middle" x="552.88" y="-1015.7" font-family="Times,serif" font-size="14.00">+ get_fault_record(&amp;self, index: usize, fault_type: FaultType) &#45;&gt; SimulationFaultRecord</text>
</g>
<!-- ndFaultType&#45;&gt;ndSimulationFaultRecord -->
<g id="edge7" class="edge">
<title>ndFaultType&#45;&gt;ndSimulationFaultRecord</title>
<path fill="none" stroke="black" stroke-dasharray="5,2" d="M552.88,-1201.19C552.88,-1184.98 552.88,-1164.58 552.88,-1144.77"/>
<polygon fill="black" stroke="black" points="552.88,-1144.79 548.88,-1138.79 552.88,-1132.79 556.88,-1138.79 552.88,-1144.79"/>
</g>
<!-- ndFaultData -->
<g id="node6" class="node">
<title>ndFaultData</title>
<polygon fill="none" stroke="black" points="205.62,-832 205.62,-955 766.12,-955 766.12,-832 205.62,-832"/>
<text text-anchor="middle" x="485.88" y="-937.7" font-family="Times,serif" font-size="14.00">&lt;&lt;&lt;Structure&gt;&gt;&gt;</text>
<text text-anchor="middle" x="485.88" y="-921.2" font-family="Times,serif" font-size="14.00">FaultData</text>
<polyline fill="none" stroke="black" points="205.62,-914 766.12,-914"/>
<text text-anchor="middle" x="485.88" y="-896.7" font-family="Times,serif" font-size="14.00">+ data: Vec&lt;u8&gt;</text>
<text text-anchor="middle" x="485.88" y="-880.2" font-family="Times,serif" font-size="14.00">+ data_changed: Vec&lt;u8&gt;</text>
<text text-anchor="middle" x="485.88" y="-863.7" font-family="Times,serif" font-size="14.00">+ fault: SimulationFaultRecord</text>
<polyline fill="none" stroke="black" points="205.62,-856.5 766.12,-856.5"/>
<text text-anchor="middle" x="485.88" y="-839.2" font-family="Times,serif" font-size="14.00">+ get_simulation_fault_records(fault_data_records: &amp;[FaultData]) &#45;&gt; Vec&lt;SimulationFaultRecord&gt;</text>
</g>
<!-- ndFaultData&#45;&gt;ndFaultAttacks -->
<g id="edge8" class="edge">
<title>ndFaultData&#45;&gt;ndFaultAttacks</title>
<path fill="none" stroke="black" d="M485.88,-831.62C485.88,-707.17 485.88,-421.19 485.88,-252.32"/>
<polygon fill="black" stroke="black" points="485.88,-252.27 481.88,-246.27 485.88,-240.27 489.88,-246.27 485.88,-252.27"/>
</g>
<!-- ndFaultData&#45;&gt;ndDisassembly -->
<g id="edge9" class="edge">
<title>ndFaultData&#45;&gt;ndDisassembly</title>
<path fill="none" stroke="black" stroke-dasharray="5,2" d="M442.86,-831.53C400.94,-772.13 336.82,-681.24 289.69,-614.45"/>
<polygon fill="black" stroke="black" points="284.15,-606.6 293.6,-612.18 286.33,-609.69 289.92,-614.77 289.92,-614.77 289.92,-614.77 286.33,-609.69 286.24,-617.36 284.15,-606.6"/>
</g>
<!-- ndFaultData&#45;&gt;ndCpuState -->
<g id="edge10" class="edge">
<title>ndFaultData&#45;&gt;ndCpuState</title>
<path fill="none" stroke="black" stroke-dasharray="5,2" d="M526.38,-831.53C534.85,-818.78 544.29,-804.58 554.32,-789.47"/>
<polygon fill="black" stroke="black" points="554.22,-789.62 554.21,-782.41 560.86,-779.63 560.88,-786.84 554.22,-789.62"/>
</g>
<!-- ndFaultData&#45;&gt;ndControl -->
<g id="edge11" class="edge">
<title>ndFaultData&#45;&gt;ndControl</title>
<path fill="none" stroke="black" d="M766.49,-832.73C827.56,-817.27 891.38,-799.2 949.88,-779 1086.1,-731.97 1234.56,-663.8 1343.48,-610.4"/>
<polygon fill="black" stroke="black" points="1352.14,-606.15 1345.15,-614.6 1348.75,-607.82 1343.17,-610.56 1343.17,-610.56 1343.17,-610.56 1348.75,-607.82 1341.18,-606.52 1352.14,-606.15"/>
</g>
<!-- ndCpu -->
<g id="node7" class="node">
<title>ndCpu</title>
<polygon fill="none" stroke="black" points="1398,-844.25 1398,-942.75 1579.75,-942.75 1579.75,-844.25 1398,-844.25"/>
<text text-anchor="middle" x="1488.88" y="-925.45" font-family="Times,serif" font-size="14.00">&lt;&lt;&lt;Structure&gt;&gt;&gt;</text>
<text text-anchor="middle" x="1488.88" y="-908.95" font-family="Times,serif" font-size="14.00">Cpu</text>
<polyline fill="none" stroke="black" points="1398,-901.75 1579.75,-901.75"/>
<text text-anchor="middle" x="1488.88" y="-884.45" font-family="Times,serif" font-size="14.00">&#45; file_data: &amp;&#39;a ElfFile</text>
<text text-anchor="middle" x="1488.88" y="-867.95" font-family="Times,serif" font-size="14.00">&#45; emu: Unicorn&lt;&#39;a, CpuState&gt;</text>
<text text-anchor="middle" x="1488.88" y="-851.45" font-family="Times,serif" font-size="14.00">&#45; program_counter: u64</text>
</g>
<!-- ndCpu&#45;&gt;ndControl -->
<g id="edge12" class="edge">
<title>ndCpu&#45;&gt;ndControl</title>
<path fill="none" stroke="black" d="M1490.88,-843.75C1493.25,-786.36 1497.22,-689.84 1500.15,-618.64"/>
<polygon fill="black" stroke="black" points="1500.16,-618.54 1496.41,-612.39 1500.65,-606.55 1504.4,-612.71 1500.16,-618.54"/>
</g>
<!-- ndTraceRecord -->
<g id="node9" class="node">
<title>ndTraceRecord</title>
<polygon fill="none" stroke="black" points="689.12,-1176.75 689.12,-1291.75 874.62,-1291.75 874.62,-1176.75 689.12,-1176.75"/>
<text text-anchor="middle" x="781.88" y="-1274.45" font-family="Times,serif" font-size="14.00">&lt;&lt;&lt;Structure&gt;&gt;&gt;</text>
<text text-anchor="middle" x="781.88" y="-1257.95" font-family="Times,serif" font-size="14.00">TraceRecord</text>
<polyline fill="none" stroke="black" points="689.12,-1250.75 874.62,-1250.75"/>
<text text-anchor="middle" x="781.88" y="-1233.45" font-family="Times,serif" font-size="14.00">+ address: u64</text>
<text text-anchor="middle" x="781.88" y="-1216.95" font-family="Times,serif" font-size="14.00">+ size: usize</text>
<text text-anchor="middle" x="781.88" y="-1200.45" font-family="Times,serif" font-size="14.00">+ asm_instruction: Vec&lt;u8&gt;</text>
<text text-anchor="middle" x="781.88" y="-1183.95" font-family="Times,serif" font-size="14.00">+ registers: Option&lt;[u32; 17]&gt;</text>
</g>
<!-- ndTraceRecord&#45;&gt;ndDisassembly -->
<g id="edge13" class="edge">
<title>ndTraceRecord&#45;&gt;ndDisassembly</title>
<path fill="none" stroke="black" stroke-dasharray="5,2" d="M688.96,-1188.19C669.79,-1180.38 649.46,-1173.13 629.88,-1168 557.01,-1148.93 356.35,-1172.54 292.88,-1132 128.06,-1026.73 168.53,-756.91 203.29,-616.36"/>
<polygon fill="black" stroke="black" points="205.7,-606.82 207.62,-617.62 204.77,-610.49 203.25,-616.52 203.25,-616.52 203.25,-616.52 204.77,-610.49 198.89,-615.42 205.7,-606.82"/>
</g>
<!-- ndTraceRecord&#45;&gt;ndCpuState -->
<g id="edge14" class="edge">
<title>ndTraceRecord&#45;&gt;ndCpuState</title>
<path fill="none" stroke="black" d="M802.52,-1176.37C806.81,-1162.08 810.68,-1146.64 812.88,-1132 821.03,-1077.5 813.45,-1063.11 812.88,-1008 811.99,-922.21 821.53,-899.86 808.88,-815 807.72,-807.29 806.43,-799.49 805.01,-791.64"/>
<polygon fill="black" stroke="black" points="804.99,-791.51 799.94,-786.36 802.76,-779.72 807.8,-784.87 804.99,-791.51"/>
</g>
<!-- ndTraceRecord&#45;&gt;ndSimulationFaultRecord -->
<g id="edge15" class="edge">
<title>ndTraceRecord&#45;&gt;ndSimulationFaultRecord</title>
<path fill="none" stroke="black" d="M701.46,-1176.27C684.55,-1164.29 666.54,-1151.53 649.11,-1139.19"/>
<polygon fill="black" stroke="black" points="649.46,-1139.43 642.25,-1139.23 639.67,-1132.49 646.88,-1132.7 649.46,-1139.43"/>
</g>
<!-- ndTraceRecord&#45;&gt;ndControl -->
<g id="edge16" class="edge">
<title>ndTraceRecord&#45;&gt;ndControl</title>
<path fill="none" stroke="black" d="M869.04,-1176.4C874.02,-1173.49 878.99,-1170.67 883.88,-1168 1066.36,-1068.16 1163.13,-1120.41 1308.88,-972 1335.37,-945.02 1420.81,-737.13 1469.34,-615.7"/>
<polygon fill="black" stroke="black" points="1473.04,-606.44 1473.51,-617.4 1471.64,-609.95 1469.33,-615.73 1469.33,-615.73 1469.33,-615.73 1471.64,-609.95 1465.15,-614.06 1473.04,-606.44"/>
</g>
<!-- ndSimulationFaultRecord&#45;&gt;ndFaultData -->
<g id="edge17" class="edge">
<title>ndSimulationFaultRecord&#45;&gt;ndFaultData</title>
<path fill="none" stroke="black" d="M529.63,-1008.46C524.51,-995.13 519.05,-980.89 513.77,-967.15"/>
<polygon fill="black" stroke="black" points="513.82,-967.27 507.93,-963.11 509.52,-956.07 515.4,-960.24 513.82,-967.27"/>
</g>
<!-- ndSimulationFaultRecord&#45;&gt;ndCpuState -->
<g id="edge18" class="edge">
<title>ndSimulationFaultRecord&#45;&gt;ndCpuState</title>
<path fill="none" stroke="black" stroke-dasharray="5,2" d="M741.13,-1008.04C754.2,-997.82 765.78,-985.9 774.88,-972 809.86,-918.53 817.43,-853.46 811.6,-789.8"/>
<polygon fill="black" stroke="black" points="810.59,-779.98 816.09,-789.47 810.98,-783.74 811.62,-789.93 811.62,-789.93 811.62,-789.93 810.98,-783.74 807.14,-790.39 810.59,-779.98"/>
</g>
<!-- ndRunType -->
<g id="node11" class="node">
<title>ndRunType</title>
<polygon fill="none" stroke="black" points="1597.88,-844.25 1597.88,-942.75 1733.88,-942.75 1733.88,-844.25 1597.88,-844.25"/>
<text text-anchor="middle" x="1665.88" y="-925.45" font-family="Times,serif" font-size="14.00">&lt;&lt;&lt;Enumeration&gt;&gt;&gt;</text>
<text text-anchor="middle" x="1665.88" y="-908.95" font-family="Times,serif" font-size="14.00">RunType</text>
<polyline fill="none" stroke="black" points="1597.88,-901.75 1733.88,-901.75"/>
<text text-anchor="middle" x="1665.88" y="-884.45" font-family="Times,serif" font-size="14.00">Run</text>
<text text-anchor="middle" x="1665.88" y="-867.95" font-family="Times,serif" font-size="14.00">RecordTrace</text>
<text text-anchor="middle" x="1665.88" y="-851.45" font-family="Times,serif" font-size="14.00">RecordFullTrace</text>
</g>
<!-- ndRunType&#45;&gt;ndControl -->
<g id="edge19" class="edge">
<title>ndRunType&#45;&gt;ndControl</title>
<path fill="none" stroke="black" stroke-dasharray="5,2" d="M1644.2,-843.75C1618.3,-785.52 1574.49,-687.03 1542.7,-615.55"/>
<polygon fill="black" stroke="black" points="1538.8,-606.77 1546.97,-614.08 1540.33,-610.22 1542.86,-615.9 1542.86,-615.9 1542.86,-615.9 1540.33,-610.22 1538.75,-617.73 1538.8,-606.77"/>
</g>
<!-- ndArgs -->
<g id="node13" class="node">
<title>ndArgs</title>
<polygon fill="none" stroke="black" points="892.75,-1168.5 892.75,-1300 1037,-1300 1037,-1168.5 892.75,-1168.5"/>
<text text-anchor="middle" x="964.88" y="-1282.7" font-family="Times,serif" font-size="14.00">&lt;&lt;&lt;Structure&gt;&gt;&gt;</text>
<text text-anchor="middle" x="964.88" y="-1266.2" font-family="Times,serif" font-size="14.00">Args</text>
<polyline fill="none" stroke="black" points="892.75,-1259 1037,-1259"/>
<text text-anchor="middle" x="964.88" y="-1241.7" font-family="Times,serif" font-size="14.00">&#45; threads: u16</text>
<text text-anchor="middle" x="964.88" y="-1225.2" font-family="Times,serif" font-size="14.00">&#45; no_compilation: bool</text>
<text text-anchor="middle" x="964.88" y="-1208.7" font-family="Times,serif" font-size="14.00">&#45; attack: String</text>
<text text-anchor="middle" x="964.88" y="-1192.2" font-family="Times,serif" font-size="14.00">&#45; analysis: bool</text>
<text text-anchor="middle" x="964.88" y="-1175.7" font-family="Times,serif" font-size="14.00">&#45; low_complexity: bool</text>
</g>
</g>
</svg>
